<?xml version="1.0" encoding="UTF-8"?>
<svg version="1.1" xmlns="http://www.w3.org/2000/svg" width="128" height="128">
<path d="M0 0 C2.3515625 2.69921875 2.3515625 2.69921875 4 5 C3.67 5.53625 3.34 6.0725 3 6.625 C1.47220486 10.25351345 1.63123887 13.38667007 2.5 17.1875 C4.94229719 20.1386091 8.41647959 20.89994257 12 22 C12.90403728 36.38926004 8.17310469 45.36188688 0.14453125 56.8125 C-3.77779852 62.64241092 -3.49371469 68.16762572 -3 75 C-2.28586365 78.2248894 -1.44092538 81.35035552 -0.4609375 84.50390625 C0 87 0 87 -2 90 C-3.89746094 90.3742218 -3.89746094 90.3742218 -6.234375 90.37231445 C-7.10868164 90.37854324 -7.98298828 90.38477203 -8.88378906 90.39118958 C-10.30256348 90.37737495 -10.30256348 90.37737495 -11.75 90.36328125 C-12.71905273 90.36377975 -13.68810547 90.36427826 -14.68652344 90.36479187 C-16.73765104 90.36244884 -18.78878138 90.35270694 -20.83984375 90.33618164 C-23.9872395 90.31259562 -27.13378841 90.31561814 -30.28125 90.32226562 C-32.27083841 90.31668893 -34.26042323 90.30957911 -36.25 90.30078125 C-37.19584961 90.30169266 -38.14169922 90.30260406 -39.11621094 90.30354309 C-40.4276709 90.28924507 -40.4276709 90.28924507 -41.765625 90.2746582 C-42.92239746 90.26774712 -42.92239746 90.26774712 -44.10253906 90.26069641 C-46 90 -46 90 -48 88 C-48.8563027 85.36766208 -49.38929927 82.70453182 -50 80 C-51.55460937 80.05220703 -51.55460937 80.05220703 -53.140625 80.10546875 C-54.51040042 80.13361482 -55.88019341 80.16091411 -57.25 80.1875 C-57.93191406 80.21263672 -58.61382812 80.23777344 -59.31640625 80.26367188 C-62.41462516 80.30879157 -64.68063336 80.15817212 -67.4765625 78.7734375 C-69 77 -69 77 -69.3203125 74.80859375 C-69.25585938 74.02613281 -69.19140625 73.24367188 -69.125 72.4375 C-68.90890241 70.11382224 -68.90890241 70.11382224 -69 68 C-69.66 67.34 -70.32 66.68 -71 66 C-71.38063221 63.6739143 -71.71269945 61.33944736 -72 59 C-72.66868314 55.88667752 -72.66868314 55.88667752 -75.0625 54.8125 C-75.701875 54.544375 -76.34125 54.27625 -77 54 C-77.38657187 49.06762926 -76.62602339 46.93933225 -73.625 43.0625 C-69.02065876 36.32806959 -68.52820158 29.98770142 -68 22 C-67.44570312 21.82984375 -66.89140625 21.6596875 -66.3203125 21.484375 C-61.91290685 20.10714852 -61.91290685 20.10714852 -58.5 17.1875 C-57.52306656 12.91341622 -57.87284311 9.18400639 -59 5 C-42.76597634 -10.5125115 -18.72058693 -12.16014664 0 0 Z M-38 3 C-37.34 5.31 -36.68 7.62 -36 10 C-37.03125 9.649375 -38.0625 9.29875 -39.125 8.9375 C-43.07260918 7.98243326 -45.15639538 7.8042119 -49 9 C-51.60985099 10.97502237 -52.76412494 12.38672485 -53.9375 15.4375 C-54.01997067 18.81879751 -53.0198841 20.33086744 -51 23 C-50.01 23.66 -49.02 24.32 -48 25 C-47.67 25.99 -47.34 26.98 -47 28 C-49.31 27.67 -51.62 27.34 -54 27 C-52.84679153 31.34347221 -52.84679153 31.34347221 -50.125 34.8125 C-48.05761885 35.96780123 -46.32262079 36.58524629 -44 37 C-43.67 35.68 -43.34 34.36 -43 33 C-41.68 32.67 -40.36 32.34 -39 32 C-38.87625 33.3921875 -38.87625 33.3921875 -38.75 34.8125 C-38.27139309 37.98857582 -38.27139309 37.98857582 -36.375 39.8125 C-33.14604227 41.42697887 -30.61186032 41.87545309 -27 42 C-23.7996736 40.77495275 -23.7996736 40.77495275 -21 39 C-19.66666667 38.33333333 -18.33333333 37.66666667 -17 37 C-17.268125 37.886875 -17.53625 38.77375 -17.8125 39.6875 C-17.9053125 41.3271875 -17.9053125 41.3271875 -18 43 C-15.68767578 45.56249975 -15.68767578 45.56249975 -13 48 C-11.6875 51.3125 -11.6875 51.3125 -11 54 C-10.01 54 -9.02 54 -8 54 C-7.61640111 47.73455149 -8.28914124 43.64762241 -11 38 C-11 37.01 -11 36.02 -11 35 C-9.35 35.33 -7.7 35.66 -6 36 C-1.94233905 32.08177028 -1.94233905 32.08177028 -0.9375 26.8125 C-2.15240255 23.59658148 -3.00866792 22.62386598 -6 21 C-8.14733927 20.29485154 -8.14733927 20.29485154 -10 20 C-10 19.01 -10 18.02 -10 17 C-8.02 16.67 -6.04 16.34 -4 16 C-6.50364089 10.41495494 -9.53625215 8.62259897 -15 6 C-15.763125 5.4225 -16.52625 4.845 -17.3125 4.25 C-20.82626354 2.61569138 -23.17946146 3.16368639 -26.9140625 3.87109375 C-29 4 -29 4 -32 2 C-35.7763932 1.7018576 -35.7763932 1.7018576 -38 3 Z " fill="#347FFF" transform="translate(92,35)"/>
<path d="M0 0 C2.5 1.375 2.5 1.375 4 3 C4 3.66 4 4.32 4 5 C1.5 6.625 1.5 6.625 -1 8 C-0.67 8.66 -0.34 9.32 0 10 C0.66 9.34 1.32 8.68 2 8 C8.46153846 8.46153846 8.46153846 8.46153846 11 11 C11.5412844 16.68348624 11.5412844 16.68348624 11 19 C6.35974093 23.39553953 1.03556195 22.47664574 -5 22.4375 C-6.6396875 22.4674707 -6.6396875 22.4674707 -8.3125 22.49804688 C-9.364375 22.49740234 -10.41625 22.49675781 -11.5 22.49609375 C-12.4590625 22.49794678 -13.418125 22.4997998 -14.40625 22.50170898 C-17.74312609 21.85625714 -18.92924352 20.6462662 -21 18 C-21.61793165 14.29241009 -21.50197249 12.7064798 -19.3125 9.625 C-16.61209763 7.72741996 -15.22939919 7.64117787 -12 8 C-11.896875 7.236875 -11.79375 6.47375 -11.6875 5.6875 C-10.07920614 -0.59946692 -5.97671802 -0.91394481 0 0 Z " fill="#14A5FF" transform="translate(117,32)"/>
<path d="M0 0 C3.27725968 0.05958654 3.94187595 0.22850076 6.625 2.375 C7.12 3.035 7.615 3.695 8.125 4.375 C7.320625 4.99375 6.51625 5.6125 5.6875 6.25 C3.08625481 8.11664041 3.08625481 8.11664041 2.125 10.375 C2.640625 10.024375 3.15625 9.67375 3.6875 9.3125 C7.1461441 7.98225227 9.5690159 8.51892975 13.125 9.375 C15.45249345 12.86624017 15.62799316 14.26722251 15.125 18.375 C13.06112368 21.02954092 11.86945959 22.2309992 8.53125 22.87670898 C7.09265625 22.87392944 7.09265625 22.87392944 5.625 22.87109375 C4.573125 22.87173828 3.52125 22.87238281 2.4375 22.87304688 C1.344375 22.85306641 0.25125 22.83308594 -0.875 22.8125 C-1.968125 22.81958984 -3.06125 22.82667969 -4.1875 22.83398438 C-13.28568205 22.76151111 -13.28568205 22.76151111 -16.875 19.375 C-17.62186121 16.65115325 -17.45029166 14.13064704 -16.875 11.375 C-14.91309984 9.20289625 -13.67409473 8.52028995 -10.8125 8 C-7.8831146 7.05503697 -7.28497095 5.00267313 -5.875 2.375 C-3.875 0.375 -3.875 0.375 0 0 Z " fill="#4866FF" transform="translate(16.875,31.625)"/>
<path d="M0 0 C3.02508145 1.73602105 5.41790069 3.83580137 7 7 C7.54016597 11.50728651 7.60322525 14.94994123 5.3125 18.9375 C1.66140963 22.1938779 -0.58247717 23.05062582 -5.5 22.875 C-9.31676375 21.92080906 -11.1992823 20.71834365 -14 18 C-15.74221711 14.51556578 -15.58675154 10.80112955 -15 7 C-11.57312771 0.81117094 -6.90942994 -1.17934611 0 0 Z M-2.125 9 C-3.053125 9.99 -3.053125 9.99 -4 11 C-5.98 10.34 -7.96 9.68 -10 9 C-10.3373846 12.12498166 -10.3373846 12.12498166 -8 14.1875 C-7.34 14.785625 -6.68 15.38375 -6 16 C-2.63704165 14.55873214 -0.37072898 12.79407345 2 10 C2 9.01 2 8.02 2 7 C-0.24362573 6.7715451 -0.24362573 6.7715451 -2.125 9 Z " fill="#3381FF" transform="translate(68,46)"/>
<path d="M0 0 C0.99 0 1.98 0 3 0 C3.74609375 1.578125 3.74609375 1.578125 4 4 C2.77369903 6.40041891 1.54429316 8.52118714 0.0625 10.75 C-0.32357422 11.35199219 -0.70964844 11.95398438 -1.10742188 12.57421875 C-2.06045415 14.05671339 -3.02878012 15.52935633 -4 17 C-5.32 16.67 -6.64 16.34 -8 16 C-7.68553475 9.86792766 -4.31543778 4.31543778 0 0 Z " fill="#1B9DFF" transform="translate(101,12)"/>
<path d="M0 0 C0.99 0.33 1.98 0.66 3 1 C4.203125 3.80078125 4.203125 3.80078125 5.25 7.3125 C5.60578125 8.46363281 5.9615625 9.61476563 6.328125 10.80078125 C6.954299 13.78238886 7.07377154 15.2123239 6 18 C4.68 18 3.36 18 2 18 C1.32844651 15.73050898 0.6626037 13.4596039 0 11.1875 C-0.556875 9.29064453 -0.556875 9.29064453 -1.125 7.35546875 C-2 4 -2 4 -2 1 C-1.34 0.67 -0.68 0.34 0 0 Z " fill="#3877FF" transform="translate(49,5)"/>
<path d="M0 0 C1.79296875 0.171875 1.79296875 0.171875 4 1 C5.73828125 3.328125 5.73828125 3.328125 7.3125 6.25 C8.11107422 7.68085938 8.11107422 7.68085938 8.92578125 9.140625 C10.11794004 12.31393494 9.99503411 13.81123572 9 17 C7.20703125 16.828125 7.20703125 16.828125 5 16 C3.26171875 13.671875 3.26171875 13.671875 1.6875 10.75 C1.15511719 9.79609375 0.62273438 8.8421875 0.07421875 7.859375 C-1.11794004 4.68606506 -0.99503411 3.18876428 0 0 Z " fill="#4170FF" transform="translate(32,12)"/>
<path d="M0 0 C2.0625 0.4375 2.0625 0.4375 4 1 C3.45018084 7.04801071 2.09570426 12.30601106 0 18 C-1.32 18 -2.64 18 -4 18 C-4.39873011 11.88613837 -3.12115707 6.73701549 -1 1 C-0.67 0.67 -0.34 0.34 0 0 Z " fill="#2690FF" transform="translate(84,5)"/>
<path d="M0 0 C1.98 0.495 1.98 0.495 4 1 C4 6.61 4 12.22 4 18 C2.35 17.67 0.7 17.34 -1 17 C-1.02684679 14.35409986 -1.04676357 11.70846904 -1.0625 9.0625 C-1.07087891 8.30775391 -1.07925781 7.55300781 -1.08789062 6.77539062 C-1.09652441 4.85005687 -1.05224333 2.92464419 -1 1 C-0.67 0.67 -0.34 0.34 0 0 Z " fill="#3183FF" transform="translate(66,3)"/>
</svg>
